<svg aria-hidden="true" style="position: absolute; width: 0; height: 0; overflow: hidden;" version="1.1" xmlns="http://www.w3.org/2000/svg" xmlns:xlink="http://www.w3.org/1999/xlink">
    <defs>
        <symbol id="play-pause" viewBox="0 0 24 24">
				    <path d="M3.65141 6.6167L11.1529 11.3696C11.3673 11.5055 11.4828 11.7229 11.4994 11.9467L11.4985 7.25024C11.4985 6.83602 11.8342 6.50024 12.2485 6.50024H15.2485C15.6627 6.50024 15.9985 6.83602 15.9985 7.25024V16.7502C15.9985 17.1644 15.6627 17.5002 15.2485 17.5002H12.2485C11.8342 17.5002 11.4985 17.1644 11.4985 16.7502L11.4993 12.06C11.4826 12.2838 11.367 12.5012 11.1525 12.6369L3.65106 17.384C3.15168 17.7 2.5 17.3412 2.5 16.7502V7.25024C2.5 6.65908 3.15205 6.30031 3.65141 6.6167ZM21.2477 6.50061C21.6619 6.50061 21.9977 6.8364 21.9977 7.25061V16.7499C21.9977 17.1641 21.6619 17.4999 21.2477 17.4999H18.2477C17.8335 17.4999 17.4977 17.1641 17.4977 16.7499V7.25061C17.4977 6.8364 17.8335 6.50061 18.2477 6.50061H21.2477Z"></path>
				</symbol>
				<symbol id="icon-switch" viewBox="0 0 32 32">
            <path
                d="M20 4.581v4.249c1.131 0.494 2.172 1.2 3.071 2.099 1.889 1.889 2.929 4.4 2.929 7.071s-1.040 5.182-2.929 7.071c-1.889 1.889-4.4 2.929-7.071 2.929s-5.182-1.040-7.071-2.929c-1.889-1.889-2.929-4.4-2.929-7.071s1.040-5.182 2.929-7.071c0.899-0.899 1.94-1.606 3.071-2.099v-4.249c-5.783 1.721-10 7.077-10 13.419 0 7.732 6.268 14 14 14s14-6.268 14-14c0-6.342-4.217-11.698-10-13.419zM14 0h4v16h-4z"
            ></path>
        </symbol>
				<symbol id="icon-arrow-down" viewBox="0 0 32 32">
            <path d="M12 0v16l-6-6-6 6 16 16 16-16-6-6-6 6v-16z"></path>
        </symbol>
				<symbol id="icon-loop" viewBox="0 0 32 32">
            <path d="M27.802 5.197c-2.925-3.194-7.13-5.197-11.803-5.197-8.837 0-16 7.163-16 16h3c0-7.18 5.82-13 13-13 3.844 0 7.298 1.669 9.678 4.322l-4.678 4.678h11v-11l-4.198 4.197z"></path>
            <path d="M29 16c0 7.18-5.82 13-13 13-3.844 0-7.298-1.669-9.678-4.322l4.678-4.678h-11v11l4.197-4.197c2.925 3.194 7.13 5.197 11.803 5.197 8.837 0 16-7.163 16-16h-3z"></path>
        </symbol>
        <symbol id="icon-circle-right" viewBox="0 0 32 32">
            <path d="M16 0c-8.837 0-16 7.163-16 16s7.163 16 16 16 16-7.163 16-16-7.163-16-16-16zM16 29c-7.18 0-13-5.82-13-13s5.82-13 13-13 13 5.82 13 13-5.82 13-13 13z"></path>
            <path d="M11.086 22.086l2.829 2.829 8.914-8.914-8.914-8.914-2.828 2.828 6.086 6.086z"></path>
        </symbol>
				<symbol id="icon-circle-left" viewBox="0 0 32 32">
            <path d="M16 32c8.837 0 16-7.163 16-16s-7.163-16-16-16-16 7.163-16 16 7.163 16 16 16zM16 3c7.18 0 13 5.82 13 13s-5.82 13-13 13-13-5.82-13-13 5.82-13 13-13z"></path>
            <path d="M20.914 9.914l-2.829-2.829-8.914 8.914 8.914 8.914 2.828-2.828-6.086-6.086z"></path>
        </symbol>
        <symbol id="icon-circle-down" viewBox="0 0 32 32">
            <path d="M32 16c0-8.837-7.163-16-16-16s-16 7.163-16 16 7.163 16 16 16 16-7.163 16-16zM3 16c0-7.18 5.82-13 13-13s13 5.82 13 13-5.82 13-13 13-13-5.82-13-13z"></path>
            <path d="M9.914 11.086l-2.829 2.829 8.914 8.914 8.914-8.914-2.828-2.828-6.086 6.086z"></path>
        </symbol>				
    </defs>
</svg>

